<svg width="17" height="20" viewBox="0 0 17 20" fill="none" xmlns="http://www.w3.org/2000/svg">
<path d="M8.31543 5.15283C8.25684 4.67236 8.28906 4.20947 8.41211 3.76416C8.54102 3.31299 8.73145 2.92041 8.9834 2.58643C9.24121 2.24658 9.53711 1.94775 9.87109 1.68994C10.2109 1.43213 10.5596 1.23291 10.917 1.09229C11.2744 0.945801 11.6201 0.85791 11.9541 0.828613C12.0596 1.479 11.957 2.14697 11.6465 2.83252C11.3359 3.51221 10.876 4.07471 10.2666 4.52002C9.65723 4.96533 9.00684 5.17627 8.31543 5.15283ZM8.81641 5.84717C9.10352 5.84717 9.42871 5.771 9.79199 5.61865C10.1611 5.46631 10.5625 5.31396 10.9961 5.16162C11.4297 5.00342 11.8721 4.92432 12.3232 4.92432C12.7217 4.92432 13.1143 4.99463 13.501 5.13525C13.8936 5.27588 14.2246 5.44873 14.4941 5.65381C14.7637 5.85303 15.0039 6.05518 15.2148 6.26025C15.4258 6.45947 15.584 6.62939 15.6895 6.77002L15.8389 6.98096C15.7803 7.01025 15.7041 7.05713 15.6104 7.12158C15.5166 7.18018 15.3496 7.31787 15.1094 7.53467C14.8691 7.75146 14.6553 7.98584 14.4678 8.23779C14.2861 8.48975 14.1191 8.82373 13.9668 9.23975C13.8203 9.65576 13.7471 10.0923 13.7471 10.5493C13.7471 10.9419 13.7939 11.314 13.8877 11.6655C13.9873 12.0171 14.1133 12.3159 14.2656 12.562C14.4238 12.8081 14.5938 13.0337 14.7754 13.2388C14.9629 13.4438 15.1504 13.6108 15.3379 13.7397C15.5254 13.8628 15.6953 13.9683 15.8477 14.0562C16.0059 14.144 16.1348 14.2056 16.2344 14.2407L16.375 14.2935C16.3457 14.3638 16.3047 14.4575 16.252 14.5747C16.1992 14.6919 16.085 14.9204 15.9092 15.2603C15.7334 15.5942 15.5547 15.9165 15.373 16.2271C15.1914 16.5317 14.96 16.8716 14.6787 17.2466C14.4033 17.6216 14.1309 17.9438 13.8613 18.2134C13.5918 18.4829 13.2871 18.7114 12.9473 18.8989C12.6133 19.0806 12.2881 19.1714 11.9717 19.1714C11.6846 19.1714 11.418 19.1333 11.1719 19.0571C10.9258 18.9751 10.7236 18.8901 10.5654 18.8022C10.4072 18.7085 10.1758 18.6235 9.87109 18.5474C9.57227 18.4653 9.22656 18.4243 8.83398 18.4243C8.40625 18.4243 8.00781 18.4888 7.63867 18.6177C7.27539 18.7407 6.93262 18.8638 6.61035 18.9868C6.28809 19.1099 5.97168 19.1714 5.66113 19.1714C5.2334 19.1714 4.7793 18.9985 4.29883 18.6528C3.81836 18.3071 3.36426 17.8384 2.93652 17.2466C2.50879 16.6489 2.11914 15.9868 1.76758 15.2603C1.41602 14.5337 1.1377 13.7544 0.932617 12.9224C0.727539 12.0903 0.625 11.2993 0.625 10.5493C0.625 9.78174 0.730469 9.07568 0.941406 8.43115C1.15234 7.78076 1.42188 7.24756 1.75 6.83154C2.08398 6.40967 2.45898 6.05225 2.875 5.75928C3.29688 5.46045 3.71289 5.24658 4.12305 5.11768C4.5332 4.98877 4.92578 4.92432 5.30078 4.92432C5.65234 4.92432 5.99512 4.97412 6.3291 5.07373C6.66895 5.16748 6.9502 5.27295 7.17285 5.39014C7.39551 5.50146 7.65332 5.60693 7.94629 5.70654C8.24512 5.80029 8.53516 5.84717 8.81641 5.84717Z" fill="#0E0E0F"/>
</svg>
