<svg width="195" height="27" viewBox="0 0 195 27" fill="none" xmlns="http://www.w3.org/2000/svg">
<g clip-path="url(#clip0_951_9834)">
<path fill-rule="evenodd" clip-rule="evenodd" d="M38.154 20.84H35.0498V7.35996H38.0754V9.15996C38.9399 7.59996 40.4723 6.95996 41.9262 6.95996C45.1089 6.95996 46.6414 9.31996 46.6414 12.28V20.8H43.5372V12.88C43.5372 11.24 42.8299 9.87996 40.8652 9.87996C39.097 9.87996 38.154 11.28 38.154 13.08V20.84Z" fill="white"/>
<path fill-rule="evenodd" clip-rule="evenodd" d="M59.8048 14.24C59.8048 11.4 58.0759 9.91996 56.1505 9.91996C54.2252 9.91996 52.4963 11.4 52.4963 14.24C52.4963 17.08 54.2645 18.6 56.1505 18.6C58.0759 18.6 59.8048 17.12 59.8048 14.24ZM62.9483 14.24C62.9483 18.48 60.0799 21.52 56.1113 21.52C52.2212 21.52 49.3135 18.44 49.3135 14.24C49.3135 10.04 52.1819 6.95996 56.1113 6.95996C60.0799 6.99996 62.9483 10.04 62.9483 14.24Z" fill="white"/>
<path fill-rule="evenodd" clip-rule="evenodd" d="M73.1645 10.4C72.8108 10.36 72.4965 10.32 72.1821 10.32C69.8245 10.32 68.7243 11.8 68.7243 14.36V20.88H65.6594V7.16H68.6457V9.36C69.2351 7.88 70.6497 7 72.3393 7C72.693 7 73.0073 7.04 73.1645 7.08V10.4Z" fill="white"/>
<path fill-rule="evenodd" clip-rule="evenodd" d="M80.7089 18.5601C82.7915 18.5601 84.2453 16.8401 84.2453 14.2401C84.2453 11.6401 82.8308 10.0801 80.7482 10.0801C78.6657 10.0801 77.1332 11.7201 77.1332 14.2801C77.1332 16.8401 78.5478 18.5601 80.7089 18.5601ZM87.2709 18.6001C87.2709 19.8001 87.3888 20.8401 87.3888 21.0401H84.3632C84.3239 20.7201 84.2453 19.8401 84.2453 19.3201C83.6166 20.4401 82.2414 21.4001 80.3553 21.4001C76.5438 21.4001 73.9504 18.3601 73.9504 14.3201C73.9504 10.4801 76.5438 7.28008 80.2767 7.28008C82.595 7.28008 83.7738 8.36008 84.1667 9.20008V1.08008H87.2709V18.6001Z" fill="white"/>
<path fill-rule="evenodd" clip-rule="evenodd" d="M90.6109 21.0398H93.7544V7.5998H90.6109V21.0398ZM92.1434 0.799805C93.2829 0.799805 94.2259 1.7198 94.2259 2.8798C94.2259 4.0398 93.2829 4.9598 92.1434 4.9598C91.0038 4.9598 90.1001 4.0398 90.1001 2.8798C90.1001 1.7198 91.0431 0.799805 92.1434 0.799805Z" fill="white"/>
<path fill-rule="evenodd" clip-rule="evenodd" d="M99.4518 14.24C99.4518 17 101.181 18.56 103.145 18.56C105.228 18.56 106.171 17.08 106.446 16.04L109.236 17.08C108.607 19.2 106.643 21.56 103.145 21.56C99.2554 21.56 96.3083 18.44 96.3083 14.28C96.3083 10.04 99.2554 7 103.067 7C106.643 7 108.568 9.32 109.118 11.52L106.289 12.6C105.975 11.4 105.11 10.04 103.067 10.04C101.181 10 99.4518 11.48 99.4518 14.24Z" fill="white"/>
<path fill-rule="evenodd" clip-rule="evenodd" d="M124.403 15.44V14.8L120.985 15.32C120.002 15.48 119.216 16.04 119.216 17.16C119.216 18.08 119.884 18.92 121.142 18.92C122.871 18.96 124.403 18.12 124.403 15.44ZM120.042 13.28L123.421 12.76C124.167 12.64 124.403 12.24 124.403 11.76C124.403 10.6 123.657 9.68 121.928 9.68C120.277 9.68 119.374 10.76 119.216 12.16L116.348 11.48C116.584 9.12 118.627 7 121.888 7C125.936 7 127.468 9.4 127.468 12.12V18.92C127.468 20.16 127.586 20.96 127.625 21.12H124.718C124.678 21.04 124.6 20.48 124.6 19.36C123.971 20.4 122.674 21.52 120.552 21.52C117.802 21.52 116.073 19.56 116.073 17.4C116.073 14.96 117.802 13.6 120.042 13.28Z" fill="white"/>
<path fill-rule="evenodd" clip-rule="evenodd" d="M134.148 20.84H131.044V7.35996H134.07V9.15996C134.934 7.59996 136.466 6.95996 137.92 6.95996C141.103 6.95996 142.636 9.31996 142.636 12.28V20.8H139.492V12.88C139.492 11.24 138.785 9.87996 136.82 9.87996C135.052 9.87996 134.109 11.28 134.109 13.08V20.84" fill="white"/>
<path fill-rule="evenodd" clip-rule="evenodd" d="M155.249 14.2402C155.249 11.9602 153.834 10.4402 151.909 10.4402C149.905 10.4402 148.49 11.9202 148.49 14.2402C148.49 16.6002 149.865 18.0402 151.909 18.0402C153.873 18.0402 155.249 16.5602 155.249 14.2402ZM148.176 21.3602C148.372 23.0402 149.669 24.2802 151.437 24.2802C153.913 24.2802 155.131 22.9602 155.131 20.2402V18.8402C154.581 19.8802 153.245 20.8002 151.359 20.8002C147.861 20.8002 145.307 18.0402 145.307 14.2402C145.307 10.6402 147.744 7.68018 151.359 7.68018C153.402 7.68018 154.659 8.52018 155.209 9.64018V7.92018H158.196V20.1202C158.196 23.7202 156.388 27.0802 151.476 27.0802C148.019 27.0802 145.582 24.8802 145.268 22.1602L148.176 21.3602Z" fill="white"/>
<path fill-rule="evenodd" clip-rule="evenodd" d="M170.73 12.76C170.691 11.16 169.63 9.71996 167.469 9.71996C165.465 9.71996 164.326 11.28 164.247 12.76H170.73ZM173.756 17.2C173.049 19.6 170.966 21.52 167.783 21.52C164.208 21.52 160.986 18.8 160.986 14.16C160.986 9.83996 164.09 6.95996 167.43 6.95996C171.516 6.95996 173.913 9.75996 173.913 14.08C173.913 14.6 173.874 15.08 173.835 15.12H164.129C164.208 17.2 165.779 18.68 167.744 18.68C169.669 18.68 170.613 17.64 171.084 16.28L173.756 17.2Z" fill="white"/>
<path fill-rule="evenodd" clip-rule="evenodd" d="M175.956 20.8398H179.375V2.83984H175.956V20.8398Z" fill="white"/>
<path fill-rule="evenodd" clip-rule="evenodd" d="M184.444 16.4398C184.562 17.6798 185.465 18.7598 187.155 18.7598C188.491 18.7598 189.159 18.0398 189.159 17.1998C189.159 16.4798 188.648 15.9198 187.587 15.6798L185.622 15.2398C183.265 14.7198 182.007 13.1198 182.007 11.2398C182.007 8.83984 184.129 6.83984 186.919 6.83984C190.652 6.83984 191.87 9.31984 192.067 10.6398L189.395 11.4398C189.277 10.6398 188.727 9.39984 186.919 9.39984C185.78 9.39984 184.994 10.1198 184.994 10.9598C184.994 11.6798 185.505 12.2398 186.33 12.3998L188.373 12.8398C190.888 13.3998 192.224 14.9598 192.224 16.9998C192.224 19.0798 190.573 21.3598 187.155 21.3598C183.265 21.3598 181.811 18.7998 181.654 17.2398L184.444 16.4398Z" fill="white"/>
<path fill-rule="evenodd" clip-rule="evenodd" d="M17.5642 1.47998C11.0807 1.47998 5.77612 6.87998 5.77612 13.52C5.77612 17.6 7.78009 21.2 10.8057 23.36C10.4521 23.08 10.177 22.72 9.98053 22.32C9.82335 22.12 9.66618 21.92 9.50901 21.72C8.13373 20.16 7.30857 18.12 7.30857 15.84C7.30857 15.48 7.34786 15.12 7.38716 14.72C7.34786 14.32 7.30857 13.92 7.30857 13.48C7.30857 7.71998 11.9059 2.99998 17.5642 2.99998C23.2224 2.99998 27.8198 7.67998 27.8198 13.48C27.8198 18.48 24.362 22.68 19.7253 23.72C18.5858 24.28 17.2891 24.64 15.9138 24.64C14.7743 24.64 13.6741 24.4 12.6918 24C12.6525 24 12.6525 24 12.6132 24C12.1024 24 11.5916 23.88 11.1986 23.64C13.0454 24.84 15.2066 25.56 17.5249 25.56C24.0083 25.56 29.3129 20.16 29.3129 13.52C29.3129 6.87998 24.0476 1.47998 17.5642 1.47998Z" fill="white"/>
<path fill-rule="evenodd" clip-rule="evenodd" d="M17.1712 23.4802C18.5465 22.4402 19.4109 20.8002 19.4109 18.9202C19.4109 15.7602 16.8961 13.2002 13.7919 13.2002C11.395 13.2002 9.31248 14.7202 8.52661 16.8802C8.64449 18.0802 9.03743 19.2002 9.66612 20.1602C9.70542 20.0402 10.3734 20.8402 10.0198 20.3602C9.784 19.8402 9.74471 19.2002 9.74471 18.8802C9.70542 16.6402 11.5129 14.8002 13.7526 14.8002C15.9924 14.8002 17.8392 16.6402 17.8392 18.9202C17.8392 20.7202 16.6997 22.2802 15.0886 22.8002C14.9707 23.0402 14.8136 23.2802 14.6171 23.5202C14.9707 23.5602 15.3637 23.6002 15.7566 23.6002C16.2281 23.6002 16.6997 23.5602 17.1712 23.4802Z" fill="white"/>
<path fill-rule="evenodd" clip-rule="evenodd" d="M10.5306 23.0401C10.3734 22.6801 10.2555 21.9601 10.2555 21.5601C10.2555 21.1201 9.90189 20.9601 10.0591 20.6001C9.46966 19.6801 8.80167 18.2001 8.68379 17.0401C8.64449 16.8001 8.64449 16.5601 8.64449 16.3201C8.64449 12.4001 11.788 9.20014 15.6387 9.20014C19.4895 9.20014 22.633 12.4001 22.633 16.3201C22.633 19.8001 20.1968 22.6801 16.9747 23.3201C16.5425 23.4001 16.071 23.4401 15.6387 23.4401C15.2851 23.4401 14.8922 23.4001 14.5385 23.3601C14.0277 23.9601 13.2418 24.2401 12.4167 24.2401C13.399 24.6401 14.4992 24.9601 15.6387 24.9601C16.9747 24.9601 18.2714 24.6401 19.3716 24.0801C22.2008 22.6801 24.1261 19.7201 24.1261 16.3201C24.1261 11.5601 20.3147 7.64014 15.5994 7.64014C11.2772 7.64014 7.70145 10.9601 7.15134 15.2001C7.11205 15.5601 7.07275 15.9201 7.07275 16.2801C7.07275 18.4801 7.89792 20.5201 9.2339 22.0401C9.35178 22.2001 9.58754 22.3201 9.70542 22.4801" fill="white"/>
<path fill-rule="evenodd" clip-rule="evenodd" d="M12.9277 19.6801C13.7529 19.6801 14.4208 20.3601 14.4208 21.2001C14.4208 21.8801 13.9493 22.4801 13.3206 22.6401H13.2813C13.1634 22.6801 13.0849 22.6801 12.967 22.6801C12.2597 22.6801 11.631 22.1601 11.5131 21.4401C11.5131 21.3601 11.4738 21.2401 11.4738 21.1601C11.4345 20.3601 12.1025 19.6801 12.9277 19.6801ZM13.0063 24.3201C13.8707 24.2801 14.6566 23.9201 15.2067 23.2801C15.4032 23.0801 15.5604 22.8401 15.6782 22.5601C15.8747 22.1601 15.9926 21.6801 15.9926 21.2001C15.9926 19.4801 14.6173 18.0801 12.9277 18.0801C11.8275 18.0801 10.8844 18.6801 10.3343 19.5601C10.2557 19.6801 10.2164 19.8001 10.1378 19.9201C9.98067 20.3201 9.86279 20.7601 9.86279 21.2001C9.86279 21.6001 9.94138 22.0001 10.0986 22.3601C10.1378 22.4401 10.1378 22.4801 10.1771 22.5601C10.3736 23.0001 10.688 23.3601 11.0416 23.6401C11.1595 23.7601 11.3167 23.8401 11.4738 23.9201C11.9061 24.1601 12.4169 24.3201 12.967 24.3201C12.967 24.3201 12.967 24.3201 13.0063 24.3201Z" fill="#40CDA0"/>
</g>
<defs>
<clipPath id="clip0_951_9834">
<rect width="195" height="27" fill="white"/>
</clipPath>
</defs>
</svg>
