<svg width="17" height="18" viewBox="0 0 17 18" fill="none" xmlns="http://www.w3.org/2000/svg">
<path fill-rule="evenodd" clip-rule="evenodd" d="M12.6271 6.04262L12.6271 6.04263L12.6273 6.04277L16.2291 7.99086C17.257 8.54371 17.257 9.45348 16.2291 10.0098L12.6273 11.9545L12.6136 11.9617L1.87253 17.7638C1.23941 18.1049 0.682648 18.0638 0.341237 17.7226L0.341338 17.7225C0.125147 17.5073 0 17.1723 0 16.7385V1.26198C0 0.828161 0.125134 0.493147 0.341304 0.277943L0.341237 0.277879C0.353433 0.265693 0.365903 0.25389 0.378641 0.242473L0.394819 0.227105L0.395483 0.227736C0.739994 -0.0665056 1.2719 -0.0870708 1.87253 0.233269L12.5587 6.00567L12.5592 6.00514L12.6271 6.04262ZM9.51793 8.99827L9.51785 8.99835V8.99868L9.51793 8.99876V8.99827Z" fill="#0E0E0F"/>
</svg>
